Coordinates
version=1
nRows=49
nColumns=12
inDegrees=yes

Units are S.I. units (second, meters, Newtons, ...)
Angles are in degrees

endheader
time	SC_y	SC_z	SC_x	AC_y	AC_z	AC_x	GH_y	GH_z	GH_yy	EL_x	PS_y
       0.0              -22.12          1.956          60.04          52.45         -2.443         -5.091         -126.0          82.21         -3.622          88.12          120.2
  0.001402              -22.13           1.96          60.04          52.44         -2.441         -5.091         -126.0           82.2          -3.64          88.11          120.2
  0.002804              -22.13          1.964          60.04          52.44         -2.439         -5.092         -126.0           82.2          -3.66           88.1          120.2
  0.004206              -22.13          1.969          60.04          52.44         -2.437         -5.092         -126.0          82.19          -3.68          88.09          120.1
  0.005608              -22.14          1.974          60.03          52.44         -2.435         -5.093         -126.0          82.19         -3.702          88.08          120.1
   0.00701              -22.14          1.979          60.03          52.44         -2.433         -5.093         -126.0          82.18         -3.726          88.06          120.1
  0.008412              -22.14          1.985          60.03          52.44         -2.431         -5.094         -126.0          82.18         -3.751          88.05          120.1
  0.009814              -22.15          1.991          60.03          52.43         -2.428         -5.094         -126.0          82.17         -3.778          88.03          120.1
   0.01122              -22.15          1.998          60.03          52.43         -2.425         -5.095         -126.0          82.16         -3.807          88.02          120.1
   0.01262              -22.16          2.005          60.03          52.43         -2.423         -5.095         -126.1          82.15         -3.837           88.0          120.1
   0.01402              -22.16          2.012          60.03          52.43         -2.419         -5.096         -126.1          82.15          -3.87          87.98          120.1
   0.01542              -22.17          2.021          60.03          52.42         -2.416         -5.096         -126.1          82.14         -3.906          87.96          120.1
   0.01682              -22.18          2.029          60.02          52.42         -2.413         -5.097         -126.1          82.13         -3.945          87.93          120.1
   0.01823              -22.18          2.039          60.02          52.42         -2.409         -5.098         -126.1          82.12         -3.986          87.91          120.1
   0.01963              -22.19          2.049          60.02          52.41         -2.404         -5.099         -126.1          82.11         -4.031          87.88          120.1
   0.02103               -22.2           2.06          60.02          52.41           -2.4           -5.1         -126.1           82.1          -4.08          87.86          120.1
   0.02243              -22.21          2.072          60.02          52.41         -2.395         -5.101         -126.1          82.08         -4.133          87.83          120.1
   0.02383              -22.22          2.086          60.01           52.4          -2.39         -5.102         -126.1          82.07          -4.19          87.79          120.0
   0.02524              -22.23            2.1          60.01           52.4         -2.384         -5.103         -126.1          82.06         -4.253          87.75          120.0
   0.02664              -22.24          2.116          60.01          52.39         -2.377         -5.104         -126.1          82.04         -4.322          87.71          120.0
   0.02804              -22.25          2.133          60.01          52.39          -2.37         -5.106         -126.1          82.02         -4.398          87.67          120.0
   0.02944              -22.27          2.152           60.0          52.38         -2.362         -5.108         -126.1           82.0         -4.481          87.62          120.0
   0.03085              -22.28          2.173           60.0          52.37         -2.354         -5.109         -126.1          81.98         -4.573          87.57          120.0
   0.03225               -22.3          2.196          59.99          52.36         -2.344         -5.111         -126.1          81.95         -4.675          87.51          119.9
   0.03365              -22.32          2.222          59.99          52.36         -2.334         -5.113         -126.1          81.93         -4.789          87.44          119.9
   0.03505              -22.34          2.251          59.98          52.35         -2.322         -5.116         -126.1           81.9         -4.915          87.37          119.9
   0.03645              -22.36          2.283          59.98          52.34         -2.309         -5.119         -126.2          81.86         -5.057          87.29          119.9
   0.03786              -22.39           2.32          59.97          52.32         -2.294         -5.122         -126.2          81.82         -5.216          87.19          119.8
   0.03926              -22.42          2.361          59.96          52.31         -2.277         -5.125         -126.2          81.78         -5.396          87.09          119.8
   0.04066              -22.45          2.408          59.95          52.29         -2.258         -5.129         -126.2          81.73         -5.601          86.97          119.8
   0.04206              -22.49          2.461          59.95          52.28         -2.236         -5.133         -126.2          81.68         -5.834          86.83          119.7
   0.04346              -22.53          2.522          59.93          52.25         -2.211         -5.139         -126.2          81.61         -6.102          86.68          119.7
   0.04487              -22.58          2.593          59.92          52.23         -2.182         -5.145         -126.3          81.54         -6.412           86.5          119.6
   0.04627              -22.64          2.675          59.91           52.2         -2.149         -5.151         -126.3          81.45         -6.771          86.29          119.5
   0.04767              -22.71          2.771          59.89          52.17         -2.109         -5.159         -126.3          81.35         -7.191          86.04          119.4
   0.04907              -22.79          2.884          59.87          52.13         -2.063         -5.169         -126.4          81.23         -7.687          85.75          119.3
   0.05047              -22.89          3.018          59.84          52.09         -2.008          -5.18         -126.4          81.09         -8.276          85.41          119.2
   0.05188              -23.01           3.18          59.81          52.03         -1.942         -5.194         -126.5          80.92         -8.982           85.0          119.1
   0.05328              -23.15          3.375          59.78          51.97         -1.862          -5.21         -126.6          80.72         -9.837           84.5          118.9
   0.05468              -23.32          3.613          59.73          51.89         -1.765          -5.23         -126.7          80.47         -10.88          83.89          118.7
   0.05608              -23.53          3.907          59.68          51.79         -1.644         -5.255         -126.8          80.16         -12.17          83.14          118.5
   0.05748               -23.8          4.274          59.61          51.66         -1.494         -5.286         -126.9          79.77         -13.77           82.2          118.1
   0.05889              -24.13          4.736          59.53          51.51         -1.305         -5.325         -127.1          79.29          -15.8          81.02          117.7
   0.06029              -24.56          5.323          59.42          51.31         -1.065         -5.374         -127.3          78.67         -18.37          79.52          117.2
   0.06169               -25.1          6.075          59.28          51.06        -0.7578         -5.437         -127.6          77.89         -21.66           77.6          116.6
   0.06309               -25.8          7.039           59.1          50.73        -0.3632         -5.518         -127.9          76.87         -25.89          75.14          115.7
   0.06449              -26.69          8.272          58.87          50.32         0.1409         -5.621         -128.4          75.58         -31.28          71.99          114.6
    0.0659              -27.81          9.821          58.59          49.79         0.7746         -5.752         -129.0          73.96         -38.07          68.04          113.3
    0.0673              -29.18          11.71          58.24          49.16          1.547          -5.91         -129.7          71.98         -46.34          63.21          111.6
